<svg width="25" height="24" viewBox="0 0 25 24" fill="none" xmlns="http://www.w3.org/2000/svg">
<path d="M9.94197 2.08371C11.5986 2.08227 13.2184 2.55105 14.5965 3.43076C15.9746 4.31047 17.0492 5.56158 17.6842 7.02582C18.3192 8.49006 18.4861 10.1016 18.1638 11.6567C17.8416 13.2117 17.0446 14.6404 15.8738 15.7619C14.7029 16.8834 13.2108 17.6474 11.5862 17.9572C9.96151 18.267 8.27735 18.1087 6.74672 17.5024C5.21609 16.8961 3.90777 15.8689 2.98726 14.5508C2.06676 13.2328 1.57542 11.6831 1.57542 10.0977C1.58547 7.9765 2.46992 5.94479 4.03656 4.44416C5.60321 2.94353 7.72542 2.09526 9.94197 2.08371ZM9.94197 0.583374C7.97563 0.583374 6.05346 1.14138 4.41851 2.18683C2.78356 3.23228 1.50928 4.71822 0.756791 6.45674C0.00430784 8.19526 -0.192576 10.1083 0.191036 11.9539C0.574649 13.7995 1.52153 15.4948 2.91194 16.8254C4.30235 18.156 6.07383 19.0621 8.00239 19.4293C9.93094 19.7964 11.9299 19.608 13.7466 18.8878C15.5632 18.1677 17.116 16.9482 18.2084 15.3836C19.3008 13.819 19.8839 11.9795 19.8839 10.0977C19.8839 7.57436 18.8365 5.15435 16.972 3.37006C15.1075 1.58578 12.5787 0.583374 9.94197 0.583374Z" fill="black"/>
<path d="M24.2242 22.7517L18.5879 17.3212L17.502 18.3532L23.1383 23.7837C23.2091 23.8519 23.2932 23.9061 23.3859 23.9432C23.4786 23.9804 23.5781 23.9996 23.6786 24C23.779 24.0003 23.8786 23.9817 23.9716 23.9452C24.0646 23.9087 24.1491 23.8551 24.2204 23.7873C24.2917 23.7196 24.3484 23.639 24.3872 23.5503C24.426 23.4616 24.4461 23.3664 24.4465 23.2703C24.4468 23.1741 24.4274 23.0788 24.3892 22.9899C24.3511 22.9009 24.295 22.82 24.2242 22.7517Z" fill="black"/>
</svg>
