<svg width="28" height="25" viewBox="0 0 28 25" fill="none" xmlns="http://www.w3.org/2000/svg">
<path d="M20.4324 0C18.556 0.000965899 16.7472 0.723773 15.3591 2.02734C14.8316 2.51937 14.374 3.08591 14 3.71016C13.6258 3.08582 13.1683 2.51904 12.6409 2.02656C11.2525 0.723535 9.44388 0.00105234 7.56757 0C3.39481 0 0 3.50469 0 7.8125C0 10.7203 0.876324 13.0156 2.92941 15.4883C5.91254 19.082 13.4627 24.5664 13.7828 24.7984C13.8463 24.8449 13.9222 24.8699 14 24.8699C14.0778 24.8699 14.1537 24.8449 14.2172 24.7984C14.5373 24.5664 22.0875 19.082 25.0714 15.4883C27.1237 13.0156 28 10.7203 28 7.8125C28 3.50469 24.6052 0 20.4324 0ZM24.497 14.9805C21.8521 18.1648 15.2797 23.0594 14 24C12.7203 23.0594 6.14789 18.1648 3.50378 14.9805C1.57784 12.6609 0.756757 10.5172 0.756757 7.8125C0.756757 3.93516 3.81254 0.78125 7.56757 0.78125C9.25286 0.78125 10.8746 1.42891 12.1323 2.60547C12.7633 3.19457 13.2818 3.9005 13.661 4.68672C13.7896 4.95234 14.2104 4.95234 14.339 4.68672C14.718 3.90062 15.2366 3.19492 15.8677 2.60625C17.1164 1.43286 18.7439 0.782161 20.4324 0.78125C24.1875 0.78125 27.2432 3.93516 27.2432 7.8125C27.2432 10.5172 26.4222 12.6609 24.497 14.9805Z" fill="black"/>
</svg>
