<svg width="19" height="19" viewBox="0 0 19 19" fill="none" xmlns="http://www.w3.org/2000/svg">
<path d="M8.61893 2.66532C9.76216 2.66427 10.88 3.00233 11.8311 3.63672C12.7822 4.27111 13.5237 5.17332 13.9619 6.22923C14.4002 7.28515 14.5154 8.44731 14.293 9.56871C14.0706 10.6901 13.5206 11.7203 12.7126 12.5291C11.9045 13.3379 10.8748 13.8888 9.75361 14.1122C8.63241 14.3356 7.47015 14.2215 6.41383 13.7842C5.35752 13.347 4.45463 12.6063 3.81937 11.6558C3.18411 10.7053 2.84504 9.58772 2.84504 8.44449C2.85197 6.9148 3.46235 5.44967 4.54351 4.36752C5.62468 3.28536 7.08925 2.67365 8.61893 2.66532ZM8.61893 1.58337C7.26193 1.58337 5.9354 1.98577 4.8071 2.73968C3.67879 3.49359 2.79939 4.56515 2.28009 5.81885C1.76079 7.07256 1.62491 8.4521 1.88965 9.78302C2.15439 11.1139 2.80784 12.3365 3.76739 13.296C4.72693 14.2556 5.94947 14.909 7.28039 15.1738C8.61132 15.4385 9.99086 15.3026 11.2446 14.7833C12.4983 14.264 13.5698 13.3846 14.3237 12.2563C15.0776 11.128 15.48 9.80149 15.48 8.44449C15.48 6.62481 14.7572 4.87966 13.4705 3.59295C12.1838 2.30624 10.4386 1.58337 8.61893 1.58337Z" fill="white"/>
<path d="M18.4751 17.5697L14.5854 13.6536L13.8359 14.3978L17.7257 18.3139C17.7745 18.3631 17.8326 18.4022 17.8966 18.429C17.9606 18.4557 18.0292 18.4696 18.0985 18.4699C18.1679 18.4701 18.2366 18.4567 18.3007 18.4304C18.3649 18.4041 18.4233 18.3654 18.4725 18.3165C18.5217 18.2677 18.5608 18.2096 18.5875 18.1456C18.6143 18.0817 18.6282 18.013 18.6285 17.9437C18.6287 17.8743 18.6153 17.8056 18.589 17.7415C18.5627 17.6773 18.524 17.6189 18.4751 17.5697Z" fill="white"/>
</svg>
