<svg width="50" height="50" viewBox="0 0 50 50" fill="none" xmlns="http://www.w3.org/2000/svg">
<g filter="url(#filter0_d_159_1306)">
<circle cx="24" cy="24" r="20" transform="rotate(180 24 24)" fill="white" fill-opacity="0.78" shape-rendering="crispEdges"/>
</g>
<path d="M27.8044 31.8037C27.9298 31.6753 28 31.503 28 31.3235C28 31.1441 27.9298 30.9718 27.8044 30.8434L20.7995 23.6573L27.8044 16.4727C27.9298 16.3444 28 16.172 28 15.9926C28 15.8132 27.9298 15.6408 27.8044 15.5125C27.7435 15.4499 27.6706 15.4001 27.5901 15.3662C27.5096 15.3322 27.4232 15.3147 27.3358 15.3147C27.2484 15.3147 27.162 15.3322 27.0815 15.3662C27.001 15.4001 26.9281 15.4499 26.8672 15.5125L19.418 23.1557C19.2872 23.2899 19.214 23.4699 19.214 23.6573C19.214 23.8448 19.2872 24.0248 19.418 24.159L26.8672 31.8022C26.9281 31.8648 27.001 31.9146 27.0815 31.9485C27.162 31.9825 27.2484 32 27.3358 32C27.4232 32 27.5096 31.9825 27.5901 31.9485C27.6706 31.9146 27.7435 31.8648 27.8044 31.8022L27.8044 31.8037Z" fill="#6A6A6A"/>
<defs>
<filter id="filter0_d_159_1306" x="0" y="0" width="50" height="50" filterUnits="userSpaceOnUse" color-interpolation-filters="sRGB">
<feFlood flood-opacity="0" result="BackgroundImageFix"/>
<feColorMatrix in="SourceAlpha" type="matrix" values="0 0 0 0 0 0 0 0 0 0 0 0 0 0 0 0 0 0 127 0" result="hardAlpha"/>
<feMorphology radius="1" operator="dilate" in="SourceAlpha" result="effect1_dropShadow_159_1306"/>
<feOffset dx="1" dy="1"/>
<feGaussianBlur stdDeviation="2"/>
<feComposite in2="hardAlpha" operator="out"/>
<feColorMatrix type="matrix" values="0 0 0 0 0 0 0 0 0 0 0 0 0 0 0 0 0 0 0.14 0"/>
<feBlend mode="normal" in2="BackgroundImageFix" result="effect1_dropShadow_159_1306"/>
<feBlend mode="normal" in="SourceGraphic" in2="effect1_dropShadow_159_1306" result="shape"/>
</filter>
</defs>
</svg>
