<svg width="26" height="24" viewBox="0 0 26 24" fill="none" xmlns="http://www.w3.org/2000/svg">
<path d="M18.8118 0.5C17.1163 0.500893 15.4819 1.16935 14.2277 2.37491C13.751 2.82994 13.3375 3.35389 12.9996 3.9312C12.6615 3.3538 12.2481 2.82964 11.7715 2.37419C10.5171 1.16913 8.88282 0.500973 7.18745 0.5C3.41706 0.5 0.349609 3.74118 0.349609 7.7251C0.349609 10.4143 1.14143 12.537 2.99654 14.8238C5.69201 18.1473 12.5141 23.2193 12.8034 23.4339C12.8607 23.4769 12.9293 23.5 12.9996 23.5C13.0699 23.5 13.1385 23.4769 13.1959 23.4339C13.4851 23.2193 20.3072 18.1473 23.0034 14.8238C24.8578 12.537 25.6496 10.4143 25.6496 7.7251C25.6496 3.74118 22.5822 0.5 18.8118 0.5ZM22.4844 14.3541C20.0945 17.2991 14.1559 21.8256 12.9996 22.6955C11.8433 21.8256 5.90467 17.2991 3.51553 14.3541C1.7753 12.209 1.03339 10.2264 1.03339 7.7251C1.03339 4.13928 3.79451 1.22251 7.18745 1.22251C8.71023 1.22251 10.1756 1.82147 11.312 2.90957C11.8822 3.45438 12.3507 4.10723 12.6933 4.83434C12.8095 5.07999 13.1897 5.07999 13.3059 4.83434C13.6484 4.10734 14.1169 3.4547 14.6872 2.91029C15.8155 1.82513 17.2861 1.22335 18.8118 1.22251C22.2047 1.22251 24.9658 4.13928 24.9658 7.7251C24.9658 10.2264 24.2239 12.209 22.4844 14.3541Z" fill="#593535"/>
</svg>
