<svg width="102" height="42" viewBox="0 0 102 42" fill="none" xmlns="http://www.w3.org/2000/svg">
<path d="M25.2686 1.03809C25.9684 1.30664 26.5584 1.71354 27.0386 2.25879C27.5187 2.7959 27.8727 3.41846 28.1006 4.12646C28.3285 4.82633 28.4831 5.5262 28.5645 6.22607C28.6458 6.91781 28.6662 7.64209 28.6255 8.39893C28.4627 11.8332 27.1281 16.244 24.6216 21.6313C23.8322 23.438 22.3918 26.0951 20.3003 29.6025C19.0552 31.7021 17.4967 33.7489 15.625 35.7427C12.7686 38.7944 9.8999 40.5441 7.01904 40.9917C5.37516 41.2521 4.11377 41.008 3.23486 40.2593C2.3641 39.5269 1.79036 38.4119 1.51367 36.9146C1.00098 34.1883 1.33057 30.7215 2.50244 26.5142C3.09652 24.3576 4.13005 21.8348 5.60303 18.9458C5.62744 18.8888 5.66813 18.8034 5.7251 18.6895C5.7902 18.5755 5.83903 18.4901 5.87158 18.4331C6.24593 17.7088 6.46973 17.2775 6.54297 17.1392C6.55111 17.1229 6.56331 17.1066 6.57959 17.0903C7.2876 15.7964 8.08105 14.4821 8.95996 13.1475C11.4258 9.42839 14.0584 6.29525 16.8579 3.74805C17.3136 3.33301 17.7816 2.95052 18.2617 2.60059C18.75 2.25065 19.2912 1.92513 19.8853 1.62402C20.4793 1.32292 21.0612 1.09505 21.6309 0.94043C22.2087 0.777669 22.8149 0.700358 23.4497 0.708496C24.0845 0.708496 24.6908 0.818359 25.2686 1.03809ZM20.813 21.5947C22.3185 18.5592 23.4904 15.6336 24.3286 12.8179C25.1668 9.99398 25.5412 7.63802 25.4517 5.75C25.3621 3.86198 24.7518 2.81217 23.6206 2.60059C22.3836 2.37272 21.1589 2.5599 19.9463 3.16211C18.4489 3.89453 17.0492 4.90365 15.7471 6.18945C13.387 8.52507 11.0352 11.5687 8.69141 15.3203C7.66602 16.9642 6.73014 18.661 5.88379 20.4106C4.6224 23.0392 3.72314 25.4359 3.18604 27.6006C2.97445 28.4714 2.79948 29.2689 2.66113 29.9932C2.52279 30.7093 2.40479 31.4987 2.30713 32.3613C2.21761 33.2158 2.1932 34.0581 2.23389 34.8882C2.28271 35.7101 2.40479 36.4873 2.6001 37.2197C2.96631 38.6032 3.60921 39.4292 4.52881 39.6978C5.09033 39.8524 5.68848 39.8809 6.32324 39.7832C6.95801 39.6937 7.51953 39.5024 8.00781 39.2095C8.50423 38.9084 8.99658 38.5584 9.48486 38.1597C9.97314 37.7609 10.437 37.3296 10.8765 36.8657C11.3159 36.4019 11.7106 35.9665 12.0605 35.5596C12.4186 35.1527 12.7848 34.6888 13.1592 34.168C13.5335 33.6471 13.8224 33.2402 14.0259 32.9473C14.2375 32.6462 14.4897 32.2718 14.7827 31.8242C15.0838 31.3685 15.2588 31.0999 15.3076 31.0186C17.2038 28.1947 19.0389 25.0534 20.813 21.5947ZM42.7979 3.57715C43.4489 4.17936 43.5628 5.15186 43.1396 6.49463C42.9281 7.17008 42.627 7.88623 42.2363 8.64307C41.8457 9.39176 41.4795 10.0347 41.1377 10.5718C40.7959 11.1007 40.3646 11.7518 39.8438 12.5249C39.738 12.6795 39.6566 12.7975 39.5996 12.8789C38.2812 14.832 36.7472 16.9032 34.9976 19.0923C34.493 19.7189 33.7321 20.6507 32.7148 21.8877C31.7057 23.1165 30.9489 24.0443 30.4443 24.6709C29.9642 25.2731 29.3823 26.0299 28.6987 26.9414C28.6906 26.9658 28.6743 27.0024 28.6499 27.0513C28.6336 27.092 28.6214 27.1204 28.6133 27.1367C28.6621 27.0879 28.7313 27.0146 28.8208 26.917C28.9185 26.8193 28.9917 26.7461 29.0405 26.6973C29.895 25.8428 30.7536 25.1917 31.6162 24.7441C33.5124 23.7594 35.0098 23.5153 36.1084 24.0117C36.4258 24.1582 36.6577 24.3983 36.8042 24.7319C36.9507 25.0575 37.0076 25.4399 36.9751 25.8794C36.9507 26.3107 36.8896 26.7298 36.792 27.1367C36.7025 27.5355 36.5804 27.9505 36.4258 28.3818C35.8805 29.8792 35.2987 31.1366 34.6802 32.1538C36.0555 32.0317 37.1785 31.8771 38.0493 31.6899C38.1714 31.6655 38.269 31.6981 38.3423 31.7876C38.4237 31.869 38.4521 31.9666 38.4277 32.0806C38.4033 32.1864 38.3301 32.2555 38.208 32.2881C37.1663 32.5566 35.8398 32.7479 34.2285 32.8618C33.8867 33.3582 33.4676 33.8628 32.9712 34.3755C32.548 34.8068 32.1899 35.1364 31.897 35.3643C31.6121 35.584 31.2134 35.8485 30.7007 36.1577C29.3254 36.9959 27.9093 37.2279 26.4526 36.8535C26.0457 36.7477 25.5981 36.5321 25.1099 36.2065C24.9634 36.1089 24.7965 35.9827 24.6094 35.8281C24.5931 35.877 24.5605 35.9502 24.5117 36.0479C24.4629 36.1374 24.4303 36.2065 24.4141 36.2554C24.2513 36.6134 23.9461 36.8454 23.4985 36.9512C23.0428 37.057 22.6522 37.0081 22.3267 36.8047C21.9604 36.5931 21.7326 36.2879 21.6431 35.8892C21.5535 35.4823 21.6024 35.0957 21.7896 34.7295C23.3032 31.4336 24.8617 28.0482 26.4648 24.5732C26.6357 24.1989 27.1484 23.0718 28.0029 21.1919C28.8656 19.3039 29.4718 17.9896 29.8218 17.249C30.1717 16.5003 30.6844 15.4424 31.3599 14.0752C32.0353 12.708 32.6701 11.4873 33.2642 10.4131C33.8826 9.26562 34.4808 8.25244 35.0586 7.37354C35.5143 6.66553 36.2264 5.87207 37.1948 4.99316C37.797 4.44792 38.3626 4.02067 38.8916 3.71143C39.4287 3.40218 40.0146 3.21501 40.6494 3.1499C41.154 3.10921 41.4754 3.09294 41.6138 3.10107C42.1021 3.14176 42.4967 3.30046 42.7979 3.57715ZM29.7974 34.5708C30.3426 34.1802 30.8594 33.6675 31.3477 33.0327C29.8014 33.1304 28.6458 33.228 27.8809 33.3257C27.8158 33.3338 27.6408 33.3542 27.356 33.3867C27.0793 33.4193 26.8677 33.4478 26.7212 33.4722C26.5747 33.4884 26.3875 33.5251 26.1597 33.582C25.9318 33.6309 25.7324 33.6919 25.5615 33.7651C25.5127 33.8791 25.4313 34.054 25.3174 34.29C25.2116 34.526 25.1302 34.7051 25.0732 34.8271C25.3174 35.112 25.6673 35.3032 26.123 35.4009C26.8473 35.5555 27.4821 35.5677 28.0273 35.4375C28.5807 35.3073 29.1707 35.0184 29.7974 34.5708ZM29.3213 27.21C29.1178 27.4053 28.8452 27.6942 28.5034 28.0767C28.1616 28.451 27.9419 28.6911 27.8442 28.7969C27.6326 29.2607 27.3112 29.9647 26.8799 30.9087C26.4486 31.8446 26.123 32.5485 25.9033 33.0205C26.0905 32.9717 26.4445 32.9025 26.9653 32.813C27.9256 32.6502 29.1178 32.52 30.542 32.4224L31.8237 32.3491C32.5968 31.1691 33.3618 29.5456 34.1187 27.4785C34.2407 27.1449 34.3384 26.8275 34.4116 26.5264C34.4849 26.2171 34.5174 25.9242 34.5093 25.6475C34.5011 25.3626 34.432 25.1755 34.3018 25.0859C34.0413 24.9232 33.6873 24.8662 33.2397 24.915C32.7922 24.9557 32.373 25.0656 31.9824 25.2446C31.1768 25.619 30.2897 26.2741 29.3213 27.21ZM41.9189 5.9209C42.041 5.43262 42.0614 5.03792 41.98 4.73682L41.9189 4.67578C41.9189 4.66764 41.9271 4.67171 41.9434 4.68799C41.9352 4.68799 41.9149 4.67578 41.8823 4.65137C41.8579 4.62695 41.8376 4.61068 41.8213 4.60254C41.7969 4.5944 41.7684 4.59033 41.7358 4.59033C41.7196 4.59033 41.7074 4.58626 41.6992 4.57812H41.6748H41.6382C41.6138 4.57812 41.5731 4.58219 41.5161 4.59033C41.4673 4.59033 41.4307 4.59033 41.4062 4.59033C41.3167 4.59033 41.2638 4.5944 41.2476 4.60254C41.1011 4.65951 40.8529 4.80599 40.5029 5.04199C39.9902 5.4082 39.5671 5.82731 39.2334 6.29932C39.0299 6.58415 38.7777 7.00732 38.4766 7.56885C38.1755 8.12223 37.9801 8.47217 37.8906 8.61865C36.4502 10.9868 35.3678 12.887 34.6436 14.3193C33.7321 16.1178 32.369 18.9865 30.5542 22.9253C33.0444 19.8003 34.3872 18.1117 34.5825 17.8594C36.1043 15.89 37.5448 13.8636 38.9038 11.7803C39.8885 10.2585 40.5477 9.18018 40.8813 8.54541C41.3696 7.60954 41.7155 6.7347 41.9189 5.9209ZM57.3486 4.27295C57.3812 4.44385 57.3975 4.62695 57.3975 4.82227C57.3975 5.01758 57.3893 5.19661 57.373 5.35938C57.3649 5.52214 57.3283 5.71338 57.2632 5.93311C57.2062 6.15283 57.1574 6.33187 57.1167 6.47021C57.076 6.60856 56.9987 6.79574 56.8848 7.03174C56.779 7.26774 56.7017 7.44271 56.6528 7.55664C56.604 7.67057 56.5104 7.85368 56.3721 8.10596C56.2337 8.3501 56.1442 8.50879 56.1035 8.58203C56.0628 8.65527 55.9652 8.8221 55.8105 9.08252C55.6641 9.3348 55.5786 9.48128 55.5542 9.52197C54.244 11.7599 52.4658 14.3356 50.2197 17.249C49.7314 17.8838 49.2106 18.543 48.6572 19.2266C48.112 19.902 47.4731 20.6873 46.7407 21.5825C46.0083 22.4696 45.4753 23.1165 45.1416 23.5234C44.4906 24.3128 43.6768 25.3626 42.7002 26.6729C42.5293 27.0472 42.2689 27.6087 41.9189 28.3574C41.5771 29.098 41.3208 29.6554 41.1499 30.0298C41.0848 30.1763 40.9749 30.3105 40.8203 30.4326C40.5518 31.0592 40.2832 31.7021 40.0146 32.3613C39.9984 32.3939 39.978 32.4427 39.9536 32.5078C39.9292 32.5729 39.9089 32.6217 39.8926 32.6543L39.6362 33.3135C39.6281 33.3379 39.6077 33.3826 39.5752 33.4478C39.445 33.7244 39.3595 33.9482 39.3188 34.1191C39.1724 34.6807 39.2171 35.0225 39.4531 35.1445C39.86 35.3561 40.6494 35.0428 41.8213 34.2046C43.0013 33.3582 44.1325 32.3003 45.2148 31.0308C45.2474 30.9982 45.2962 30.9412 45.3613 30.8599C45.4264 30.7785 45.4753 30.7215 45.5078 30.689L45.5322 30.6646H46.3257L46.2646 30.7744C46.1833 30.9046 46.0327 31.0918 45.813 31.3359C44.8446 32.4264 43.9331 33.3542 43.0786 34.1191C42.2241 34.876 41.4795 35.4416 40.8447 35.8159C40.2181 36.1903 39.681 36.4548 39.2334 36.6094C38.7939 36.764 38.3952 36.8413 38.0371 36.8413C37.8092 36.8413 37.618 36.8169 37.4634 36.7681C37.1623 36.6867 36.9222 36.5524 36.7432 36.3652C36.5641 36.1699 36.4543 35.9705 36.4136 35.7671C36.3973 35.6776 36.377 35.4416 36.3525 35.0591C36.3281 34.4813 36.438 33.8018 36.6821 33.0205C36.9995 32.0358 37.5651 30.693 38.3789 28.9922C38.4033 28.8132 38.4521 28.6463 38.5254 28.4917C40.6413 23.853 42.5293 19.7759 44.1895 16.2603C45.4508 13.5991 46.5576 11.41 47.5098 9.69287C47.5667 9.59521 47.6929 9.36328 47.8882 8.99707C48.0916 8.63086 48.2381 8.37044 48.3276 8.21582C48.4172 8.05306 48.5474 7.83333 48.7183 7.55664C48.8892 7.27181 49.0519 7.0236 49.2065 6.81201C49.3693 6.59229 49.5361 6.38477 49.707 6.18945C50.5127 5.26172 51.3102 4.50081 52.0996 3.90674C52.7669 3.41846 53.4098 3.10107 54.0283 2.95459C54.2725 2.90576 54.5166 2.86914 54.7607 2.84473H54.8706C54.895 2.84473 54.9561 2.83659 55.0537 2.82031C55.1595 2.80404 55.2368 2.7959 55.2856 2.7959C55.8065 2.77962 56.2297 2.87321 56.5552 3.07666C56.9702 3.32894 57.2347 3.7277 57.3486 4.27295ZM55.957 5.50586C56.0303 5.1722 56.0588 4.89958 56.0425 4.68799C56.0343 4.61475 56.0018 4.51302 55.9448 4.38281H55.957L55.9082 4.3584C55.8675 4.33398 55.839 4.31771 55.8228 4.30957C55.8146 4.30957 55.7943 4.3055 55.7617 4.29736C55.7292 4.28109 55.7048 4.27295 55.6885 4.27295H55.5664C55.5501 4.27295 55.5135 4.27702 55.4565 4.28516C55.3996 4.28516 55.367 4.28516 55.3589 4.28516L55.2124 4.32178L55.0903 4.38281L54.8828 4.46826C54.8584 4.48454 54.8177 4.51302 54.7607 4.55371C54.7038 4.58626 54.659 4.61068 54.6265 4.62695L54.4434 4.74902C54.2318 4.89551 53.9958 5.11523 53.7354 5.4082C53.2633 5.92904 52.7588 6.69808 52.2217 7.71533C52.0182 8.1141 51.6968 8.66341 51.2573 9.36328C50.8179 10.0632 50.5208 10.5474 50.3662 10.8159C49.7477 11.9308 49.1496 13.0539 48.5718 14.1851C47.8882 15.5441 47.0622 17.2572 46.0938 19.3242C45.931 19.6823 45.6828 20.2235 45.3491 20.9478C45.0155 21.6639 44.7673 22.201 44.6045 22.5591C44.9056 22.1766 45.3451 21.6273 45.9229 20.9111C46.5088 20.1868 46.9808 19.5968 47.3389 19.1411C47.6969 18.6854 48.1201 18.1401 48.6084 17.5054C49.1048 16.8706 49.5524 16.2847 49.9512 15.7476C52.1891 12.7284 53.833 10.2056 54.8828 8.1792C55.4443 7.08057 55.8024 6.18945 55.957 5.50586ZM52.5391 30.4814C52.6204 30.3675 52.7303 30.3309 52.8687 30.3716C53.0151 30.4041 53.1169 30.4814 53.1738 30.6035C53.2389 30.7174 53.2349 30.8354 53.1616 30.9575C51.9572 32.5363 50.826 33.8058 49.7681 34.7661C49.2391 35.2463 48.702 35.6654 48.1567 36.0234C48.116 36.0479 47.998 36.1252 47.8027 36.2554C47.6156 36.3856 47.4772 36.4751 47.3877 36.5239C47.3063 36.5728 47.1883 36.6379 47.0337 36.7192C46.8872 36.8006 46.7489 36.8617 46.6187 36.9023C46.5617 36.9186 46.4071 36.9471 46.1548 36.9878L46.1426 37C46.0286 37.0163 45.9473 37.0244 45.8984 37.0244C45.5241 37.0244 45.2026 36.9023 44.9341 36.6582C44.4865 36.2594 44.2261 35.7183 44.1528 35.0347C44.0877 34.3999 44.1243 33.7529 44.2627 33.0938C44.401 32.4346 44.6126 31.7062 44.8975 30.9087C45.5973 28.9718 46.5332 26.8966 47.7051 24.6831C47.9004 24.325 48.2096 24.0931 48.6328 23.9873C49.0641 23.8815 49.4507 23.9303 49.7925 24.1338C50.1506 24.3454 50.3825 24.6546 50.4883 25.0615C50.5941 25.4684 50.5452 25.855 50.3418 26.2212C49.9268 27.0024 49.5931 27.6576 49.3408 28.1865C49.0641 28.7806 48.7996 29.3584 48.5474 29.9199C48.409 30.2129 48.3276 30.3919 48.3032 30.457L48.291 30.4692C48.291 30.4774 48.291 30.4855 48.291 30.4937C48.291 30.5099 48.2707 30.5588 48.23 30.6401C48.2056 30.6971 48.1689 30.7826 48.1201 30.8965C48.0794 31.0023 48.0469 31.0837 48.0225 31.1406C48.0225 31.1488 48.0062 31.1854 47.9736 31.2505C47.9736 31.2668 47.9655 31.283 47.9492 31.2993L47.937 31.3359C47.9289 31.3685 47.9126 31.4173 47.8882 31.4824C47.8638 31.5394 47.8434 31.5841 47.8271 31.6167C47.2819 32.9839 46.8913 34.1313 46.6553 35.0591C46.6553 35.0835 46.6512 35.1038 46.6431 35.1201C46.6431 35.1771 46.6309 35.2666 46.6064 35.3887C46.6064 35.3968 46.6024 35.409 46.5942 35.4253C46.5942 35.4334 46.5942 35.4416 46.5942 35.4497C46.6919 35.4578 46.8384 35.4538 47.0337 35.4375C47.286 35.4049 47.5382 35.3317 47.7905 35.2178C48.0509 35.0957 48.3154 34.9289 48.584 34.7173C48.8607 34.4976 49.0763 34.3185 49.231 34.1802C49.3856 34.0337 49.5931 33.8343 49.8535 33.582C50.651 32.7926 51.5462 31.7591 52.5391 30.4814ZM48.2178 30.689L48.291 30.5059C48.2747 30.5303 48.2503 30.5913 48.2178 30.689ZM46.4478 35.4375C46.4152 35.4049 46.403 35.4049 46.4111 35.4375H46.4355H46.4478ZM53.418 19.3486L53.4668 19.7515C53.4668 19.8979 53.4505 20.0322 53.418 20.1543L53.2593 20.5205L53.2471 20.5449L53.2104 20.6182C53.2023 20.6182 53.1982 20.6263 53.1982 20.6426C53.1982 20.6589 53.1942 20.6711 53.186 20.6792L53.1738 20.6914C53.1657 20.7158 53.1494 20.7565 53.125 20.8135C53.1006 20.8623 53.0802 20.8989 53.064 20.9233C52.9256 21.1593 52.7425 21.3424 52.5146 21.4727L52.1484 21.6191C51.8799 21.6924 51.6113 21.6924 51.3428 21.6191L50.9766 21.4727C50.7975 21.375 50.6551 21.2448 50.5493 21.082C50.411 20.9355 50.3174 20.7606 50.2686 20.5571C50.2035 20.3455 50.1953 20.1421 50.2441 19.9468C50.2523 19.7433 50.3133 19.5562 50.4272 19.3853C50.4354 19.369 50.4476 19.3405 50.4639 19.2998C50.4883 19.2591 50.5046 19.2266 50.5127 19.2021C50.5208 19.1859 50.5371 19.1574 50.5615 19.1167C50.5859 19.076 50.6022 19.0475 50.6104 19.0312V19.019C50.6104 19.0109 50.6144 19.0028 50.6226 18.9946V18.9824H50.6348C50.708 18.8441 50.8382 18.7017 51.0254 18.5552C51.1963 18.425 51.3672 18.3354 51.5381 18.2866C51.8555 18.2052 52.1281 18.2052 52.356 18.2866C52.6001 18.3599 52.8239 18.4901 53.0273 18.6772C53.2145 18.8807 53.3447 19.1045 53.418 19.3486ZM67.8101 30.3716C67.9565 30.3146 68.0786 30.339 68.1763 30.4448C68.2739 30.5506 68.3065 30.6808 68.2739 30.8354C68.2495 30.9819 68.1641 31.0796 68.0176 31.1284C67.0085 31.4865 66.04 31.4539 65.1123 31.0308C64.1927 30.5994 63.4196 29.9199 62.793 28.9922C61.5885 30.6686 60.0301 32.3898 58.1177 34.1558C57.0516 35.1486 56.1605 35.8647 55.4443 36.3042C54.834 36.6785 54.0283 36.939 53.0273 37.0854C52.7507 37.118 52.5106 37.0814 52.3071 36.9756C51.9165 36.8617 51.6032 36.589 51.3672 36.1577C51.123 35.7183 50.9888 35.2747 50.9644 34.8271C50.9399 34.404 50.9644 33.9482 51.0376 33.46C51.1108 32.9635 51.1882 32.5485 51.2695 32.2148C51.3428 31.8812 51.4933 31.4214 51.7212 30.8354C51.9491 30.2414 52.1037 29.8467 52.1851 29.6514C52.2746 29.4561 52.4618 29.0369 52.7466 28.394C53.3081 27.1164 53.9062 25.8753 54.541 24.6709C54.7363 24.3128 55.0456 24.0809 55.4688 23.9751C55.9001 23.8693 56.2866 23.9222 56.6284 24.1338C56.9865 24.3454 57.2184 24.6546 57.3242 25.0615C57.43 25.4603 57.3812 25.8428 57.1777 26.209C56.9499 26.6484 56.7464 27.0472 56.5674 27.4053C56.014 28.5283 55.6356 29.3218 55.4321 29.7856L55.1025 30.5547V30.5669C55.1025 30.575 55.0944 30.5954 55.0781 30.6279L54.8218 31.2139C54.8136 31.2301 54.8014 31.2546 54.7852 31.2871C54.777 31.3197 54.7689 31.3441 54.7607 31.3604C54.7445 31.401 54.7201 31.4621 54.6875 31.5435C54.6631 31.6167 54.6427 31.6696 54.6265 31.7021C54.4718 32.0846 54.3783 32.3247 54.3457 32.4224C53.9225 33.5535 53.6499 34.3877 53.5278 34.9248C53.5197 34.9492 53.5116 34.998 53.5034 35.0713C53.4953 35.1364 53.4831 35.1893 53.4668 35.23C53.4668 35.2544 53.4587 35.2992 53.4424 35.3643C53.4587 35.3724 53.4831 35.3846 53.5156 35.4009C53.5482 35.409 53.5685 35.4131 53.5767 35.4131H53.5889H53.6377C53.8005 35.4049 53.9185 35.3927 53.9917 35.3765C54.3416 35.2869 54.6916 35.1608 55.0415 34.998C55.9937 34.5342 56.9173 33.9279 57.8125 33.1792C59.4889 31.7713 60.9863 30.1356 62.3047 28.272C62.3128 28.2638 62.325 28.2476 62.3413 28.2231C62.1704 27.8732 62.0239 27.4948 61.9019 27.0879C61.5682 25.8997 61.6252 25.0208 62.0728 24.4512C62.3006 24.1745 62.6139 24.0076 63.0127 23.9507C63.4115 23.8856 63.7614 23.9507 64.0625 24.146C64.2822 24.2843 64.4368 24.4634 64.5264 24.6831C64.624 24.9028 64.6484 25.151 64.5996 25.4277C64.5589 25.6963 64.502 25.9526 64.4287 26.1968C64.3555 26.4328 64.2293 26.7054 64.0503 27.0146C63.8794 27.3239 63.7451 27.5558 63.6475 27.7104C63.5579 27.8651 63.4359 28.0563 63.2812 28.2842C63.8021 29.1549 64.4613 29.8019 65.2588 30.2251C66.0563 30.6401 66.9067 30.689 67.8101 30.3716ZM62.5854 25.1348C62.3494 25.6637 62.439 26.4368 62.854 27.4541C63.2039 26.9007 63.4481 26.4328 63.5864 26.0503C63.8387 25.4074 63.8631 25.0046 63.6597 24.8418C63.5132 24.7197 63.3179 24.6872 63.0737 24.7441C62.8377 24.8011 62.675 24.9313 62.5854 25.1348ZM74.3896 30.4814C74.471 30.3675 74.5809 30.3309 74.7192 30.3716C74.8657 30.4041 74.9674 30.4814 75.0244 30.6035C75.0895 30.7174 75.0854 30.8354 75.0122 30.9575C73.8078 32.5363 72.6766 33.8058 71.6187 34.7661C71.0897 35.2463 70.5526 35.6654 70.0073 36.0234C69.9666 36.0479 69.8486 36.1252 69.6533 36.2554C69.4661 36.3856 69.3278 36.4751 69.2383 36.5239C69.1569 36.5728 69.0389 36.6379 68.8843 36.7192C68.7378 36.8006 68.5994 36.8617 68.4692 36.9023C68.4123 36.9186 68.2576 36.9471 68.0054 36.9878L67.9932 37C67.8792 37.0163 67.7979 37.0244 67.749 37.0244C67.3747 37.0244 67.0532 36.9023 66.7847 36.6582C66.3371 36.2594 66.0767 35.7183 66.0034 35.0347C65.9383 34.3999 65.9749 33.7529 66.1133 33.0938C66.2516 32.4346 66.4632 31.7062 66.748 30.9087C67.4479 28.9718 68.3838 26.8966 69.5557 24.6831C69.751 24.325 70.0602 24.0931 70.4834 23.9873C70.9147 23.8815 71.3013 23.9303 71.6431 24.1338C72.0011 24.3454 72.2331 24.6546 72.3389 25.0615C72.4447 25.4684 72.3958 25.855 72.1924 26.2212C71.7773 27.0024 71.4437 27.6576 71.1914 28.1865C70.9147 28.7806 70.6502 29.3584 70.3979 29.9199C70.2596 30.2129 70.1782 30.3919 70.1538 30.457L70.1416 30.4692C70.1416 30.4774 70.1416 30.4855 70.1416 30.4937C70.1416 30.5099 70.1213 30.5588 70.0806 30.6401C70.0562 30.6971 70.0195 30.7826 69.9707 30.8965C69.93 31.0023 69.8975 31.0837 69.873 31.1406C69.873 31.1488 69.8568 31.1854 69.8242 31.2505C69.8242 31.2668 69.8161 31.283 69.7998 31.2993L69.7876 31.3359C69.7795 31.3685 69.7632 31.4173 69.7388 31.4824C69.7144 31.5394 69.694 31.5841 69.6777 31.6167C69.1325 32.9839 68.7419 34.1313 68.5059 35.0591C68.5059 35.0835 68.5018 35.1038 68.4937 35.1201C68.4937 35.1771 68.4814 35.2666 68.457 35.3887C68.457 35.3968 68.453 35.409 68.4448 35.4253C68.4448 35.4334 68.4448 35.4416 68.4448 35.4497C68.5425 35.4578 68.689 35.4538 68.8843 35.4375C69.1366 35.4049 69.3888 35.3317 69.6411 35.2178C69.9015 35.0957 70.166 34.9289 70.4346 34.7173C70.7113 34.4976 70.9269 34.3185 71.0815 34.1802C71.2362 34.0337 71.4437 33.8343 71.7041 33.582C72.5016 32.7926 73.3968 31.7591 74.3896 30.4814ZM70.0684 30.689L70.1416 30.5059C70.1253 30.5303 70.1009 30.5913 70.0684 30.689ZM68.2983 35.4375C68.2658 35.4049 68.2536 35.4049 68.2617 35.4375H68.2861H68.2983ZM75.2686 19.3486L75.3174 19.7515C75.3174 19.8979 75.3011 20.0322 75.2686 20.1543L75.1099 20.5205L75.0977 20.5449L75.061 20.6182C75.0529 20.6182 75.0488 20.6263 75.0488 20.6426C75.0488 20.6589 75.0448 20.6711 75.0366 20.6792L75.0244 20.6914C75.0163 20.7158 75 20.7565 74.9756 20.8135C74.9512 20.8623 74.9308 20.8989 74.9146 20.9233C74.7762 21.1593 74.5931 21.3424 74.3652 21.4727L73.999 21.6191C73.7305 21.6924 73.4619 21.6924 73.1934 21.6191L72.8271 21.4727C72.6481 21.375 72.5057 21.2448 72.3999 21.082C72.2616 20.9355 72.168 20.7606 72.1191 20.5571C72.054 20.3455 72.0459 20.1421 72.0947 19.9468C72.1029 19.7433 72.1639 19.5562 72.2778 19.3853C72.286 19.369 72.2982 19.3405 72.3145 19.2998C72.3389 19.2591 72.3551 19.2266 72.3633 19.2021C72.3714 19.1859 72.3877 19.1574 72.4121 19.1167C72.4365 19.076 72.4528 19.0475 72.4609 19.0312V19.019C72.4609 19.0109 72.465 19.0028 72.4731 18.9946V18.9824H72.4854C72.5586 18.8441 72.6888 18.7017 72.876 18.5552C73.0469 18.425 73.2178 18.3354 73.3887 18.2866C73.7061 18.2052 73.9787 18.2052 74.2065 18.2866C74.4507 18.3599 74.6745 18.4901 74.8779 18.6772C75.0651 18.8807 75.1953 19.1045 75.2686 19.3486ZM86.7798 29.4194C86.853 29.3869 86.9141 29.4032 86.9629 29.4683C87.0117 29.5252 87.0076 29.5863 86.9507 29.6514C86.3566 30.3105 85.6283 30.8354 84.7656 31.2261C83.9111 31.6167 83.077 31.755 82.2632 31.6411C82.0272 31.6004 81.8075 31.5394 81.604 31.458C81.1401 32.2881 80.599 33.0938 79.9805 33.875C79.2236 34.8271 78.4017 35.6084 77.5146 36.2188C77.0426 36.5361 76.5991 36.7314 76.1841 36.8047C75.9725 36.8454 75.708 36.8779 75.3906 36.9023C75.236 36.9105 75.061 36.9023 74.8657 36.8779C74.7599 36.8779 74.6338 36.8454 74.4873 36.7803C74.3408 36.7233 74.235 36.6663 74.1699 36.6094C74.1618 36.6094 74.1455 36.6053 74.1211 36.5972C74.0967 36.589 74.0804 36.5809 74.0723 36.5728C73.9339 36.4914 73.7996 36.3856 73.6694 36.2554C73.4741 36.0682 73.3032 35.8444 73.1567 35.584C72.8719 35.055 72.7091 34.4447 72.6685 33.7529C72.6196 32.7194 72.8556 31.5394 73.3765 30.2129C73.8729 28.9515 74.4751 27.8325 75.1831 26.856C75.5737 26.327 75.944 25.8753 76.2939 25.501C76.652 25.1185 77.0467 24.8133 77.478 24.5854C77.8361 24.3901 78.2104 24.3413 78.6011 24.439C78.9998 24.5366 79.305 24.7645 79.5166 25.1226C79.5817 25.2365 79.6305 25.3504 79.6631 25.4644C79.9805 24.8784 80.4036 24.4756 80.9326 24.2559C81.2907 24.1175 81.665 24.1175 82.0557 24.2559C82.4463 24.3861 82.7352 24.6139 82.9224 24.9395C83.2479 25.4847 83.3171 26.2944 83.1299 27.3687C82.9346 28.4917 82.5399 29.6432 81.9458 30.8232C82.1574 30.8883 82.3771 30.929 82.605 30.9453C82.841 30.9535 83.0811 30.9331 83.3252 30.8843C83.5775 30.8273 83.8135 30.7663 84.0332 30.7012C84.2529 30.6361 84.5011 30.5425 84.7778 30.4204C85.0545 30.2902 85.2865 30.1803 85.4736 30.0908C85.6608 29.9932 85.8887 29.8752 86.1572 29.7368C86.4339 29.5903 86.6414 29.4845 86.7798 29.4194ZM80.7129 25.3789C80.3548 25.737 80.127 26.1886 80.0293 26.7339C79.9316 27.271 79.9438 27.8 80.0659 28.3208C80.188 28.8335 80.3874 29.3096 80.6641 29.749C80.8431 30.0176 81.0384 30.2414 81.25 30.4204C81.8034 29.3218 82.1737 28.2801 82.3608 27.2954C82.5236 26.4246 82.4992 25.7858 82.2876 25.3789C82.1737 25.1592 82.015 25.0208 81.8115 24.9639C81.5999 24.8988 81.4128 24.9028 81.25 24.9761C81.0872 25.0493 80.9082 25.1836 80.7129 25.3789ZM79.7119 32.8618C80.1758 32.2515 80.5745 31.6533 80.9082 31.0674C80.4199 30.7012 80.0374 30.2251 79.7607 29.6392C79.362 28.7765 79.187 27.8895 79.2358 26.978C79.1626 27.0513 79.0771 27.1123 78.9795 27.1611C78.9551 27.1774 78.9185 27.2018 78.8696 27.2344C78.8289 27.2669 78.7964 27.2873 78.772 27.2954C78.7394 27.328 78.6825 27.3768 78.6011 27.4419C78.5278 27.507 78.4749 27.5558 78.4424 27.5884C78.3447 27.686 78.2064 27.8407 78.0273 28.0522L77.771 28.3452H77.7954C77.7791 28.3534 77.771 28.3615 77.771 28.3696C77.2176 29.1346 76.6968 30.042 76.2085 31.0918L76.0864 31.3359C76.0701 31.3685 76.0498 31.4173 76.0254 31.4824C76.0091 31.5394 76.001 31.5719 76.001 31.5801C75.9115 31.7998 75.826 32.048 75.7446 32.3247C75.6714 32.5688 75.6104 32.813 75.5615 33.0571L75.4883 33.3501C75.4801 33.3664 75.472 33.4111 75.4639 33.4844C75.4557 33.5576 75.4517 33.6024 75.4517 33.6187C75.4517 33.6268 75.4435 33.696 75.4272 33.8262C75.4191 33.9564 75.415 34.054 75.415 34.1191V34.3877C75.415 34.4609 75.4232 34.5301 75.4395 34.5952C75.4883 34.7743 75.5208 34.9085 75.5371 34.998V35.0103C75.5371 35.0184 75.5412 35.0347 75.5493 35.0591C75.5575 35.0754 75.5656 35.0916 75.5737 35.1079L75.647 35.1445C75.7284 35.2015 75.7975 35.2381 75.8545 35.2544C75.8464 35.2463 75.826 35.2381 75.7935 35.23C75.8504 35.2544 75.8993 35.2707 75.9399 35.2788C76.005 35.2869 76.1027 35.2829 76.2329 35.2666C76.3062 35.2666 76.473 35.2422 76.7334 35.1934C76.9775 35.1364 77.181 35.0672 77.3438 34.9858C78.1087 34.6359 78.8981 33.9279 79.7119 32.8618ZM101.636 30.2373C101.782 30.3512 101.766 30.5221 101.587 30.75C99.9674 32.7113 98.3887 34.2738 96.8506 35.4375C95.6462 36.3571 94.6248 36.8169 93.7866 36.8169C93.5425 36.8169 93.3309 36.7843 93.1519 36.7192C92.6636 36.5402 92.3625 36.1699 92.2485 35.6084C92.216 35.4538 92.1916 35.2178 92.1753 34.9004C92.1509 34.3226 92.2607 33.6431 92.5049 32.8618C92.8711 31.6737 93.5221 30.1559 94.458 28.3086C94.5312 28.1377 94.7144 27.682 95.0073 26.9414C95.0968 26.6973 95.1416 26.4368 95.1416 26.1602C95.1416 25.8835 95.0684 25.6922 94.9219 25.5864C94.5964 25.3504 93.9779 25.623 93.0664 26.4043C92.098 27.2262 91.1784 28.1336 90.3076 29.1265C89.445 30.1193 88.5335 31.2424 87.5732 32.4956C87.5163 32.5688 87.4268 32.6868 87.3047 32.8496C87.1826 33.0042 87.0931 33.1222 87.0361 33.2036C86.4583 33.9604 85.9009 34.6725 85.3638 35.3398C84.7616 36.0885 84.2529 36.6053 83.8379 36.8901C83.7565 36.9471 83.6711 36.9756 83.5815 36.9756C83.5734 36.9756 83.5653 36.9756 83.5571 36.9756C83.5409 36.9674 83.5286 36.9634 83.5205 36.9634H83.5083C83.5002 36.9634 83.488 36.9715 83.4717 36.9878L83.1421 37.1221L83.2275 37.0488C83.1299 37.0732 83.0444 37.0854 82.9712 37.0854C82.8084 37.1017 82.6701 37.0854 82.5562 37.0366V37.0854L82.4341 36.9756L82.4219 36.9634L82.3975 36.939C82.3649 36.939 82.3039 36.8576 82.2144 36.6948C82.1655 36.6053 82.133 36.4954 82.1167 36.3652C82.0841 36.0885 82.2266 35.6247 82.5439 34.9736L82.5928 34.8882C82.7555 34.5464 83.0078 34.0378 83.3496 33.3623C83.6833 32.6787 83.9355 32.1701 84.1064 31.8364L84.6313 30.7866C85.673 28.687 86.6252 26.7868 87.4878 25.0859C87.7319 24.5977 88.0981 24.2437 88.5864 24.0239C89.0828 23.8042 89.502 23.7757 89.8438 23.9385C90.0472 24.0361 90.1693 24.1908 90.21 24.4023C90.2588 24.6139 90.2181 24.8581 90.0879 25.1348C89.445 26.5508 88.4888 28.5324 87.2192 31.0796L86.8164 31.8975C86.7676 32.0033 86.6862 32.166 86.5723 32.3857C86.4583 32.6055 86.377 32.7682 86.3281 32.874C87.1175 31.8079 87.7767 30.9372 88.3057 30.2617C88.8428 29.5863 89.5223 28.8091 90.3442 27.9302C91.1662 27.0513 91.98 26.2904 92.7856 25.6475C93.4123 25.151 94.1121 24.7319 94.8853 24.3901C95.6665 24.0483 96.346 23.91 96.9238 23.9751C97.1191 23.9914 97.29 24.0443 97.4365 24.1338C97.583 24.2152 97.6766 24.2884 97.7173 24.3535C97.7661 24.4105 97.8231 24.4919 97.8882 24.5977L97.9004 24.6343C98.0632 24.9191 98.1201 25.4115 98.0713 26.1113C98.0306 26.6403 97.8678 27.3035 97.583 28.1011C97.5749 28.1174 97.5667 28.158 97.5586 28.2231C97.5505 28.2801 97.5382 28.3249 97.522 28.3574C97.1395 29.4154 96.578 30.6971 95.8374 32.2026C95.6177 32.6502 95.4712 33.0124 95.3979 33.2891H95.3857H95.4102C95.3857 33.3379 95.3573 33.4111 95.3247 33.5088C95.2922 33.5983 95.2718 33.6512 95.2637 33.6675C95.2067 33.8302 95.166 33.932 95.1416 33.9727C95.109 34.0459 95.0765 34.1558 95.0439 34.3022C95.0114 34.4487 94.9951 34.6156 94.9951 34.8027C95.0033 34.9899 95.0521 35.1201 95.1416 35.1934C95.4102 35.3887 95.992 35.1405 96.8872 34.4487C98.0428 33.5617 99.3571 32.2311 100.83 30.457C100.952 30.3105 101.095 30.217 101.257 30.1763C101.428 30.1356 101.554 30.1559 101.636 30.2373Z" fill="white"/>
</svg>
