<svg width="24" height="23" viewBox="0 0 24 23" fill="none" xmlns="http://www.w3.org/2000/svg">
<path d="M3.37726 0C1.50646 0 0 1.44369 0 3.23654V19.7635C0 21.5563 1.50646 23 3.37726 23H20.6228C22.4936 23 24 21.5563 24 19.7635V3.23654C24 1.44369 22.4936 0 20.6228 0H3.37726ZM12.5378 2.35032C15.2614 2.35032 17.4758 4.47332 17.4758 7.08329C17.4758 9.69305 15.2614 11.8148 12.5378 11.8148C9.81408 11.8148 7.59826 9.69305 7.59826 7.08329C7.59826 4.47332 9.81406 2.35032 12.5378 2.35032ZM12.4853 5.12327C11.382 5.15018 10.4925 6.01991 10.4925 7.08331C10.4925 8.16314 11.4103 9.0419 12.5378 9.0419C13.665 9.0419 14.5815 8.16314 14.5815 7.08331C14.5815 6.00305 13.665 5.12327 12.5378 5.12327C12.5202 5.12327 12.5028 5.12284 12.4853 5.12327ZM8.44874 11.9758C8.71034 11.9767 8.97427 12.0457 9.21226 12.1893C11.2337 13.4074 13.8396 13.4082 15.8618 12.1893C16.5388 11.7807 17.4312 11.9769 17.8575 12.6256C18.2834 13.2733 18.0788 14.1295 17.4023 14.5375C16.5202 15.0688 15.5508 15.4534 14.535 15.6753L17.2965 18.3217C17.8618 18.8623 17.8618 19.741 17.2965 20.2825C16.7309 20.8241 15.8159 20.8241 15.2513 20.2825L12.5363 17.682L9.82426 20.2825C9.54185 20.5532 9.17129 20.6885 8.80126 20.6885C8.43084 20.6885 8.06153 20.5528 7.77826 20.2825C7.21303 19.7407 7.2132 18.8635 7.77826 18.3217L10.5383 15.6753C9.53318 15.4557 8.56339 15.0745 7.67026 14.5375C6.99504 14.1295 6.792 13.2742 7.218 12.6256C7.48349 12.2202 7.932 11.9911 8.39626 11.9766C8.41375 11.976 8.43126 11.9758 8.44877 11.9758H8.44874Z" fill="white"/>
</svg>
