<svg width="9" height="17" viewBox="0 0 9 17" fill="none" xmlns="http://www.w3.org/2000/svg">
<path d="M8.80442 16.8037C8.92981 16.6753 9 16.503 9 16.3235C9 16.1441 8.92981 15.9718 8.80442 15.8434L1.79948 8.65735L8.80442 1.47272C8.9298 1.34436 9 1.17204 9 0.992599C9 0.81316 8.9298 0.640839 8.80442 0.512474C8.74348 0.449881 8.67061 0.400129 8.59012 0.366159C8.50964 0.33219 8.42316 0.31469 8.3358 0.31469C8.24844 0.31469 8.16196 0.33219 8.08147 0.36616C8.00098 0.400129 7.92812 0.449881 7.86717 0.512474L0.418048 8.15566C0.287215 8.28988 0.213992 8.46991 0.213992 8.65735C0.213992 8.84478 0.287215 9.02481 0.418048 9.15903L7.86717 16.8022C7.92812 16.8648 8.00098 16.9146 8.08147 16.9485C8.16196 16.9825 8.24844 17 8.3358 17C8.42316 17 8.50964 16.9825 8.59013 16.9485C8.67061 16.9146 8.74348 16.8648 8.80442 16.8022L8.80442 16.8037Z" fill="#6A6A6A"/>
</svg>
