<svg width="20" height="26" viewBox="0 0 20 26" fill="none" xmlns="http://www.w3.org/2000/svg">
<path d="M18.8 5.39623H14.38C14.2758 3.91949 13.7693 2.54841 12.9594 1.55063C12.1495 0.55285 11.0944 0 10 0C8.90559 0 7.85047 0.55285 7.04059 1.55063C6.23072 2.54841 5.72423 3.91949 5.62 5.39623H1.2C0.88174 5.39623 0.576516 5.5676 0.351472 5.87265C0.126428 6.1777 0 6.59144 0 7.02284V24.3734C0 24.8048 0.126428 25.2185 0.351472 25.5236C0.576516 25.8286 0.88174 26 1.2 26H18.8C19.1183 26 19.4235 25.8286 19.6485 25.5236C19.8736 25.2185 20 24.8048 20 24.3734V7.02284C20 6.59144 19.8736 6.1777 19.6485 5.87265C19.4235 5.5676 19.1183 5.39623 18.8 5.39623ZM10 1.05859C10.8853 1.0608 11.7391 1.50389 12.3992 2.30362C13.0592 3.10335 13.4795 4.20397 13.58 5.39623H6.42C6.52054 4.20397 6.94079 3.10335 7.60083 2.30362C8.26088 1.50389 9.11471 1.0608 10 1.05859ZM19.2 24.3734C19.2 24.5172 19.1579 24.6551 19.0828 24.7568C19.0078 24.8585 18.9061 24.9156 18.8 24.9156H1.2C1.09391 24.9156 0.992172 24.8585 0.917157 24.7568C0.842143 24.6551 0.8 24.5172 0.8 24.3734V7.02284C0.8 6.87904 0.842143 6.74113 0.917157 6.63944C0.992172 6.53776 1.09391 6.48064 1.2 6.48064H5.6V10.2761C5.6 10.4199 5.64214 10.5578 5.71716 10.6595C5.79217 10.7611 5.89391 10.8183 6 10.8183C6.10609 10.8183 6.20783 10.7611 6.28284 10.6595C6.35786 10.5578 6.4 10.4199 6.4 10.2761V6.48064H13.6V10.2761C13.6 10.4199 13.6421 10.5578 13.7172 10.6595C13.7922 10.7611 13.8939 10.8183 14 10.8183C14.1061 10.8183 14.2078 10.7611 14.2828 10.6595C14.3579 10.5578 14.4 10.4199 14.4 10.2761V6.48064H18.8C18.9061 6.48064 19.0078 6.53776 19.0828 6.63944C19.1579 6.74113 19.2 6.87904 19.2 7.02284V24.3734Z" fill="black"/>
</svg>
